<svg xmlns="http://www.w3.org/2000/svg" version="1.1" xmlns:xlink="http://www.w3.org/1999/xlink" xmlns:svgjs="http://svgjs.dev/svgjs" width="1500" height="1500" viewBox="0 0 1500 1500"><rect width="1500" height="1500" fill="#ffffff"></rect><g transform="matrix(0.6666666666666666,0,0,0.6666666666666666,249.39393939393938,438.5856950067477)"><svg viewBox="0 0 396 247" data-background-color="#ffffff" preserveAspectRatio="xMidYMid meet" height="935" width="1500" xmlns="http://www.w3.org/2000/svg" xmlns:xlink="http://www.w3.org/1999/xlink"><g id="tight-bounds" transform="matrix(1,0,0,1,0.2400000000000091,-0.09999999999999432)"><svg viewBox="0 0 395.52 247.2" height="247.2" width="395.52"><g><svg></svg></g><g><svg viewBox="0 0 395.52 247.2" height="247.2" width="395.52"><g transform="matrix(1,0,0,1,85.05473812858051,47.215199999999996)"><svg viewBox="0 0 225.41052374283896 152.7696" height="152.7696" width="225.41052374283896"><g><svg viewBox="0 0 225.41052374283896 152.7696" height="152.7696" width="225.41052374283896"><g><svg viewBox="0 0 225.41052374283896 152.7696" height="152.7696" width="225.41052374283896"><g><svg viewBox="0 0 225.41052374283896 152.7696" height="152.7696" width="225.41052374283896"><g id="textblocktransform"><svg viewBox="0 0 225.41052374283896 152.7696" height="152.7696" width="225.41052374283896" id="textblock"><g><svg viewBox="0 0 225.41052374283896 152.7696" height="152.7696" width="225.41052374283896"><g transform="matrix(1,0,0,1,0,0)"><svg width="225.41052374283896" viewBox="3.49 -37.55 56.589999999999996 38.36" height="152.7696" data-palette-color="#3581c4"><path d="M3.49-32.79L3.49-37.01 15.5-37.01 15.5-32.79 11.79-32.79 11.79-4.2 24.56-4.2Q24.95-4.2 25.34-4.38 25.73-4.57 26.05-4.86 26.37-5.15 26.56-5.53 26.76-5.91 26.76-6.3L26.76-6.3 26.76-10.96 31.4-10.96 31.4 0 3.49 0 3.49-4.2 7.01-4.2 7.01-32.79 3.49-32.79ZM54.1-26.95Q54.1-29.1 53.32-30.18 52.54-31.25 51.6-31.82 50.66-32.4 49.53-32.7 48.41-33.01 47.29-33.01L47.29-33.01Q45.43-33.01 44.04-32.58 42.65-32.15 41.73-31.42 40.82-30.69 40.35-29.71 39.89-28.74 39.89-27.66L39.89-27.66Q39.89-26.05 40.46-25.06 41.04-24.07 41.92-23.47 42.8-22.88 43.86-22.53 44.92-22.19 45.9-21.85L45.9-21.85 50.83-20.24Q53.05-19.53 54.75-18.63 56.44-17.72 57.59-16.49 58.74-15.26 59.34-13.65 59.93-12.04 59.93-9.91L59.93-9.91Q59.93-7.62 58.99-5.66 58.05-3.71 56.37-2.27 54.69-0.83 52.35-0.01 50.02 0.81 47.24 0.81L47.24 0.81Q44.38 0.81 42.36 0.16 40.33-0.49 38.95-1.57 37.57-2.66 36.74-4.05 35.91-5.44 35.45-6.91L35.45-6.91 33.59-6.91 33.59-11.11 39.74-11.11Q39.74-8.4 40.32-7.28 40.89-6.15 41.92-5.41 42.94-4.66 44.36-4.28 45.77-3.91 47.48-3.91L47.48-3.91Q49.14-3.91 50.47-4.3 51.8-4.69 52.74-5.43 53.68-6.18 54.18-7.24 54.69-8.3 54.69-9.64L54.69-9.64Q54.69-11.13 54.06-12.17 53.44-13.21 52.46-13.94 51.49-14.67 50.33-15.14 49.17-15.6 48.09-15.94L48.09-15.94 42.75-17.46Q40.99-17.99 39.54-18.82 38.08-19.65 37.05-20.85 36.01-22.05 35.45-23.65 34.89-25.24 34.89-27.34L34.89-27.34Q34.89-29.47 35.72-31.32 36.55-33.18 38.16-34.57 39.77-35.96 42.1-36.76 44.43-37.55 47.43-37.55L47.43-37.55Q49.41-37.55 51.08-37.08 52.76-36.62 54.11-35.78 55.47-34.94 56.5-33.75 57.54-32.57 58.25-31.15L58.25-31.15 60.08-31.15 60.08-26.95 54.1-26.95Z" opacity="1" transform="matrix(1,0,0,1,0,0)" fill="#000000" class="wordmark-text-0" data-fill-palette-color="primary" id="text-0"></path></svg></g></svg></g></svg></g></svg></g></svg></g></svg></g></svg></g><g><path d="M0 123.6c0-68.262 55.338-123.6 123.6-123.6 30.402 0 58.24 10.976 79.768 29.183l-11.147 0c-19.26-14.022-42.974-22.294-68.621-22.295-64.458 0-116.712 52.254-116.712 116.712 0 64.458 52.254 116.712 116.712 116.712 25.647 0 49.361-8.272 68.621-22.295l11.147 0c-21.528 18.206-49.366 29.183-79.768 29.183-68.262 0-123.6-55.338-123.6-123.6z" fill="#000000" stroke="transparent" data-fill-palette-color="tertiary"></path></g></svg></g><defs></defs></svg><rect width="395.52" height="247.2" fill="none" stroke="none" visibility="hidden"></rect></g></svg></g></svg>